<?xml version="1.0" standalone="no"?>
<!DOCTYPE svg PUBLIC "-//W3C//DTD SVG 20010904//EN"
 "http://www.w3.org/TR/2001/REC-SVG-20010904/DTD/svg10.dtd">
<svg version="1.0" xmlns="http://www.w3.org/2000/svg"
 width="494.000000pt" height="494.000000pt" viewBox="0 0 494.000000 494.000000"
 preserveAspectRatio="xMidYMid meet">
<metadata>
Created by potrace 1.11, written by Peter Selinger 2001-2013
</metadata>
<g transform="translate(0.000000,494.000000) scale(0.100000,-0.100000)"
fill="#000000" stroke="none">
<path d="M2469 4579 c-44 -26 -71 -71 -226 -379 -204 -405 -391 -820 -498
-1105 -20 -55 -48 -128 -61 -162 -55 -141 -175 -529 -191 -613 -2 -14 -13 -63
-23 -110 -19 -89 -25 -122 -35 -205 -3 -27 -8 -66 -11 -85 -6 -44 -6 -268 0
-335 5 -47 10 -78 21 -135 3 -14 7 -37 10 -52 10 -53 57 -191 90 -265 108
-235 303 -434 526 -536 170 -78 219 -88 439 -93 251 -5 374 18 545 104 109 54
173 100 266 192 127 125 203 239 268 400 72 181 96 327 95 580 -1 173 -21 316
-75 540 -34 139 -165 561 -190 610 -4 8 -26 65 -49 125 -111 287 -287 679
-471 1045 -155 308 -214 417 -242 449 -48 52 -127 65 -188 30z"/>
</g>
</svg>
