<svg style="position: absolute; width: 0; height: 0; overflow: hidden;" version="1.1" xmlns="http://www.w3.org/2000/svg" xmlns:xlink="http://www.w3.org/1999/xlink">
<defs>
<symbol id="bab-Icon--bubbles2" viewBox="0 0 18 16">
<title>bubbles2</title>
<path class="path1" d="M7.5 0v0c4.142 0 7.5 2.717 7.5 6.069s-3.358 6.069-7.5 6.069c-0.398 0-0.788-0.025-1.169-0.074-1.611 1.605-3.471 1.892-5.331 1.935v-0.393c1.004-0.49 1.813-1.382 1.813-2.402 0-0.142-0.011-0.282-0.032-0.419-1.696-1.113-2.781-2.812-2.781-4.717 0-3.352 3.358-6.069 7.5-6.069zM15.563 13.604c0 0.874 0.567 1.639 1.438 2.059v0.337c-1.611-0.036-3.090-0.283-4.487-1.658-0.33 0.041-0.669 0.063-1.013 0.063-1.492 0-2.866-0.402-3.963-1.079 2.261-0.008 4.395-0.732 6.013-2.042 0.816-0.66 1.459-1.435 1.913-2.302 0.481-0.92 0.724-1.9 0.724-2.913 0-0.163-0.007-0.326-0.020-0.487 1.134 0.936 1.832 2.213 1.832 3.62 0 1.633-0.94 3.089-2.41 4.043-0.018 0.117-0.027 0.237-0.027 0.359z"></path>
</symbol>
<symbol id="bab-Icon--facebook" viewBox="0 0 16 16">
<title>facebook</title>
<path class="path1" d="M9.5 3h2.5v-3h-2.5c-1.93 0-3.5 1.57-3.5 3.5v1.5h-2v3h2v8h3v-8h2.5l0.5-3h-3v-1.5c0-0.271 0.229-0.5 0.5-0.5z"></path>
</symbol>
<symbol id="bab-Icon--instagram" viewBox="0 0 16 16">
<title>instagram</title>
<path class="path1" d="M8 1.441c2.137 0 2.391 0.009 3.231 0.047 0.781 0.034 1.203 0.166 1.484 0.275 0.372 0.144 0.641 0.319 0.919 0.597 0.281 0.281 0.453 0.547 0.6 0.919 0.109 0.281 0.241 0.706 0.275 1.484 0.037 0.844 0.047 1.097 0.047 3.231s-0.009 2.391-0.047 3.231c-0.034 0.781-0.166 1.203-0.275 1.484-0.144 0.372-0.319 0.641-0.597 0.919-0.281 0.281-0.547 0.453-0.919 0.6-0.281 0.109-0.706 0.241-1.484 0.275-0.844 0.037-1.097 0.047-3.231 0.047s-2.391-0.009-3.231-0.047c-0.781-0.034-1.203-0.166-1.484-0.275-0.372-0.144-0.641-0.319-0.919-0.597-0.281-0.281-0.453-0.547-0.6-0.919-0.109-0.281-0.241-0.706-0.275-1.484-0.038-0.844-0.047-1.097-0.047-3.231s0.009-2.391 0.047-3.231c0.034-0.781 0.166-1.203 0.275-1.484 0.144-0.372 0.319-0.641 0.597-0.919 0.281-0.281 0.547-0.453 0.919-0.6 0.281-0.109 0.706-0.241 1.484-0.275 0.841-0.038 1.094-0.047 3.231-0.047zM8 0c-2.172 0-2.444 0.009-3.297 0.047-0.85 0.038-1.434 0.175-1.941 0.372-0.528 0.206-0.975 0.478-1.419 0.925-0.447 0.444-0.719 0.891-0.925 1.416-0.197 0.509-0.334 1.091-0.372 1.941-0.037 0.856-0.047 1.128-0.047 3.3s0.009 2.444 0.047 3.297c0.038 0.85 0.175 1.434 0.372 1.941 0.206 0.528 0.478 0.975 0.925 1.419 0.444 0.444 0.891 0.719 1.416 0.922 0.509 0.197 1.091 0.334 1.941 0.372 0.853 0.037 1.125 0.047 3.297 0.047s2.444-0.009 3.297-0.047c0.85-0.037 1.434-0.175 1.941-0.372 0.525-0.203 0.972-0.478 1.416-0.922s0.719-0.891 0.922-1.416c0.197-0.509 0.334-1.091 0.372-1.941 0.037-0.853 0.047-1.125 0.047-3.297s-0.009-2.444-0.047-3.297c-0.037-0.85-0.175-1.434-0.372-1.941-0.197-0.531-0.469-0.978-0.916-1.422-0.444-0.444-0.891-0.719-1.416-0.922-0.509-0.197-1.091-0.334-1.941-0.372-0.856-0.041-1.128-0.050-3.3-0.050v0z"></path>
<path class="path2" d="M8 3.891c-2.269 0-4.109 1.841-4.109 4.109s1.841 4.109 4.109 4.109 4.109-1.841 4.109-4.109c0-2.269-1.841-4.109-4.109-4.109zM8 10.666c-1.472 0-2.666-1.194-2.666-2.666s1.194-2.666 2.666-2.666c1.472 0 2.666 1.194 2.666 2.666s-1.194 2.666-2.666 2.666z"></path>
<path class="path3" d="M13.231 3.728c0 0.53-0.43 0.959-0.959 0.959s-0.959-0.43-0.959-0.959c0-0.53 0.43-0.959 0.959-0.959s0.959 0.43 0.959 0.959z"></path>
</symbol>
<symbol id="bab-Icon--twitter" viewBox="0 0 16 16">
<title>twitter</title>
<path class="path1" d="M16 3.538c-0.588 0.263-1.222 0.438-1.884 0.516 0.678-0.406 1.197-1.050 1.444-1.816-0.634 0.375-1.338 0.65-2.084 0.797-0.6-0.638-1.453-1.034-2.397-1.034-1.813 0-3.281 1.469-3.281 3.281 0 0.256 0.028 0.506 0.084 0.747-2.728-0.138-5.147-1.444-6.766-3.431-0.281 0.484-0.444 1.050-0.444 1.65 0 1.138 0.578 2.144 1.459 2.731-0.538-0.016-1.044-0.166-1.488-0.409 0 0.013 0 0.028 0 0.041 0 1.591 1.131 2.919 2.634 3.219-0.275 0.075-0.566 0.116-0.866 0.116-0.212 0-0.416-0.022-0.619-0.059 0.419 1.303 1.631 2.253 3.066 2.281-1.125 0.881-2.538 1.406-4.078 1.406-0.266 0-0.525-0.016-0.784-0.047 1.456 0.934 3.181 1.475 5.034 1.475 6.037 0 9.341-5.003 9.341-9.341 0-0.144-0.003-0.284-0.009-0.425 0.641-0.459 1.197-1.038 1.637-1.697z"></path>
</symbol>
<symbol id="bab-Icon--rss" viewBox="0 0 16 16">
<title>rss</title>
<path class="path1" d="M2.13 11.733c-1.175 0-2.13 0.958-2.13 2.126 0 1.174 0.955 2.122 2.13 2.122 1.179 0 2.133-0.948 2.133-2.122-0-1.168-0.954-2.126-2.133-2.126zM0.002 5.436v3.067c1.997 0 3.874 0.781 5.288 2.196 1.412 1.411 2.192 3.297 2.192 5.302h3.080c-0-5.825-4.739-10.564-10.56-10.564zM0.006 0v3.068c7.122 0 12.918 5.802 12.918 12.932h3.076c0-8.82-7.176-16-15.994-16z"></path>
</symbol>
<symbol id="bab-Icon--pinterest2" viewBox="0 0 16 16">
<title>pinterest2</title>
<path class="path1" d="M8 0c-4.412 0-8 3.587-8 8s3.587 8 8 8 8-3.588 8-8-3.588-8-8-8zM8 14.931c-0.716 0-1.403-0.109-2.053-0.309 0.281-0.459 0.706-1.216 0.862-1.816 0.084-0.325 0.431-1.647 0.431-1.647 0.225 0.431 0.888 0.797 1.587 0.797 2.091 0 3.597-1.922 3.597-4.313 0-2.291-1.869-4.003-4.272-4.003-2.991 0-4.578 2.009-4.578 4.194 0 1.016 0.541 2.281 1.406 2.684 0.131 0.063 0.2 0.034 0.231-0.094 0.022-0.097 0.141-0.566 0.194-0.787 0.016-0.069 0.009-0.131-0.047-0.2-0.287-0.347-0.516-0.988-0.516-1.581 0-1.528 1.156-3.009 3.128-3.009 1.703 0 2.894 1.159 2.894 2.819 0 1.875-0.947 3.175-2.178 3.175-0.681 0-1.191-0.563-1.025-1.253 0.197-0.825 0.575-1.713 0.575-2.306 0-0.531-0.284-0.975-0.878-0.975-0.697 0-1.253 0.719-1.253 1.684 0 0.612 0.206 1.028 0.206 1.028s-0.688 2.903-0.813 3.444c-0.141 0.6-0.084 1.441-0.025 1.988-2.578-1.006-4.406-3.512-4.406-6.45 0-3.828 3.103-6.931 6.931-6.931s6.931 3.103 6.931 6.931c0 3.828-3.103 6.931-6.931 6.931z"></path>
</symbol>
<symbol id="bab-Icon--helloCoton" viewBox="0 0 800 800">
<title>helloCoton</title>
<path fill="currentColor" opacity="1.00" d=" M 373.69 107.59 C 385.61 105.59 397.84 106.27 409.72 108.28 C 436.20 111.69 462.35 122.50 481.27 141.72 C 489.81 151.05 496.96 161.77 501.36 173.68 C 508.03 191.39 513.38 210.13 512.50 229.23 C 512.70 233.05 511.68 237.14 513.43 240.72 C 519.78 240.97 525.12 237.13 530.71 234.71 C 543.86 228.30 558.57 226.31 572.94 224.60 C 583.26 224.53 593.70 223.83 603.88 225.99 C 621.76 228.90 638.79 236.67 652.65 248.35 C 668.48 261.61 680.14 279.42 687.32 298.70 C 692.27 311.94 694.75 325.95 696.41 339.95 C 696.55 346.97 696.66 354.02 696.34 361.05 C 694.87 371.58 692.87 382.14 689.13 392.13 C 683.00 407.59 672.97 421.57 659.92 431.93 C 645.21 443.77 629.01 454.58 610.55 459.45 C 606.48 460.62 601.41 460.79 599.10 464.94 C 602.14 470.96 607.55 475.13 611.68 480.32 C 619.08 489.10 624.44 499.36 629.30 509.70 C 638.39 529.50 642.90 551.79 639.62 573.48 C 635.30 604.17 616.16 631.46 591.18 649.20 C 574.31 661.50 554.83 670.35 534.29 674.28 C 524.06 675.98 513.57 677.59 503.24 675.78 C 489.58 674.03 476.06 669.99 464.26 662.77 C 448.83 653.04 433.93 641.81 422.84 627.15 C 419.90 623.35 417.80 618.92 414.47 615.43 C 413.53 614.10 411.33 614.01 410.28 615.24 C 407.32 618.17 405.60 622.04 403.67 625.67 C 396.90 639.41 386.41 650.95 375.03 661.04 C 362.16 672.43 347.15 681.72 330.58 686.56 C 324.08 688.22 317.66 690.36 311.02 691.38 C 305.03 691.61 298.99 691.71 293.01 691.29 C 276.43 687.94 259.79 683.49 245.07 674.91 C 227.28 664.79 211.94 650.64 199.66 634.32 C 185.14 614.79 176.40 590.42 177.57 565.94 C 179.70 547.10 185.52 528.76 193.73 511.70 C 197.45 504.43 201.93 497.50 207.48 491.49 C 209.76 488.85 212.70 486.24 212.78 482.48 C 207.46 479.31 201.12 479.22 195.22 477.93 C 187.89 476.60 180.94 473.81 174.13 470.88 C 153.76 461.84 134.68 448.68 121.69 430.31 C 113.83 418.99 108.07 406.13 105.43 392.58 C 104.16 385.75 102.22 378.95 102.43 371.95 C 102.49 365.80 102.07 359.58 103.46 353.54 C 106.73 332.95 113.25 312.53 124.94 295.11 C 134.07 280.94 145.15 267.65 159.37 258.35 C 175.93 247.34 196.00 242.60 215.72 242.48 C 223.40 242.65 231.15 241.94 238.76 243.28 C 247.49 244.47 256.30 246.01 264.41 249.60 C 267.57 251.09 271.00 251.81 274.49 251.62 C 276.86 245.89 274.25 239.87 273.73 234.05 C 272.31 215.07 275.99 196.03 282.04 178.09 C 287.77 163.11 296.04 148.85 307.60 137.60 C 317.89 127.99 329.90 120.07 343.13 115.13 C 352.91 111.22 363.29 109.09 373.69 107.59 M 448.81 243.73 C 428.87 246.62 410.57 256.53 395.03 269.03 C 377.68 283.03 364.99 303.42 362.54 325.80 C 362.43 332.56 362.30 339.34 362.63 346.10 C 364.63 359.61 368.63 372.89 374.98 385.01 C 377.03 388.89 379.02 392.82 380.53 396.95 C 380.26 397.61 379.71 398.93 379.44 399.59 C 377.33 399.52 375.14 399.68 373.15 398.88 C 349.58 389.13 329.40 372.09 314.40 351.60 C 300.35 333.20 291.18 311.60 284.49 289.58 C 282.43 283.16 281.82 276.24 278.48 270.29 C 276.83 270.55 274.81 270.10 273.58 271.52 C 270.42 274.55 268.33 278.48 266.28 282.30 C 260.74 292.73 256.93 304.14 255.58 315.89 C 255.45 323.24 255.18 330.64 255.81 337.98 C 259.91 363.76 270.46 389.98 291.21 406.80 C 305.05 418.42 322.97 424.29 340.82 425.49 C 348.71 425.47 356.67 425.99 364.47 424.47 C 371.42 423.72 378.15 420.90 385.22 421.56 C 385.62 422.19 386.42 423.44 386.82 424.06 C 383.63 430.72 378.10 435.80 373.03 441.01 C 358.42 455.07 340.65 465.69 321.64 472.62 C 305.09 478.78 287.54 481.70 270.04 483.41 C 257.28 483.70 244.51 483.28 231.76 483.57 C 230.90 484.71 230.05 485.86 229.14 486.97 C 231.70 493.50 236.58 498.68 241.24 503.77 C 257.89 520.89 281.35 530.54 305.05 531.93 C 315.14 533.48 325.31 531.81 335.30 530.31 C 354.53 526.65 372.93 516.63 385.02 501.01 C 396.05 487.49 402.77 470.89 405.89 453.82 C 407.44 447.49 406.76 440.27 410.97 434.88 C 413.10 436.03 415.13 437.46 416.44 439.54 C 427.01 456.78 433.20 476.49 435.41 496.54 C 437.12 509.27 436.99 522.26 434.98 534.94 C 433.28 550.71 429.28 566.15 424.05 581.10 C 422.66 585.41 420.29 589.83 421.45 594.49 C 422.86 594.94 424.34 595.76 425.86 595.12 C 446.36 589.30 463.83 575.16 475.64 557.63 C 485.57 542.06 491.74 524.25 494.36 506.02 C 494.66 500.33 494.57 494.63 494.43 488.94 C 492.86 474.33 487.52 460.08 478.73 448.27 C 469.28 435.66 456.83 425.48 443.10 417.85 C 438.00 414.83 432.41 412.67 427.52 409.29 C 427.51 408.07 427.47 406.86 427.45 405.65 C 435.30 401.82 444.19 401.43 452.71 400.54 C 461.14 400.55 469.62 400.03 478.01 401.01 C 497.68 402.60 516.71 409.02 534.32 417.74 C 547.49 424.78 560.40 432.49 571.86 442.14 C 575.61 445.04 579.30 449.24 584.52 448.67 C 586.29 443.26 585.44 437.47 585.42 431.89 C 583.48 416.15 577.13 401.06 567.64 388.38 C 557.09 373.89 542.70 362.50 527.00 354.03 C 515.74 348.72 503.51 344.45 490.94 344.45 C 463.93 343.15 438.61 357.39 419.83 375.83 C 416.15 379.04 412.99 384.35 407.42 383.72 C 406.33 380.84 406.27 377.73 406.53 374.71 C 409.86 347.36 421.87 321.47 439.15 300.16 C 452.38 284.68 467.54 270.75 484.71 259.73 C 487.85 257.63 491.26 255.63 493.48 252.48 C 494.38 249.82 491.70 248.26 489.64 247.41 C 481.49 244.16 472.66 243.50 464.02 242.60 C 458.91 242.25 453.89 243.45 448.81 243.73 Z" />
</symbol>
</defs>
</svg>
