<?xml version="1.0" standalone="no"?>
<!DOCTYPE svg PUBLIC "-//W3C//DTD SVG 20010904//EN"
 "http://www.w3.org/TR/2001/REC-SVG-20010904/DTD/svg10.dtd">
<svg version="1.0" xmlns="http://www.w3.org/2000/svg"
 width="494.000000pt" height="494.000000pt" viewBox="0 0 494.000000 494.000000"
 preserveAspectRatio="xMidYMid meet">
<metadata>
Created by potrace 1.11, written by Peter Selinger 2001-2013
</metadata>
<g transform="translate(0.000000,494.000000) scale(0.100000,-0.100000)"
fill="#000000" stroke="none">
<path d="M2395 4501 c-46 -28 -63 -52 -126 -173 -90 -174 -286 -571 -334 -678
-24 -52 -54 -120 -68 -150 -98 -216 -327 -797 -327 -830 0 -6 -4 -18 -10 -28
-13 -22 -102 -339 -128 -457 -45 -199 -62 -334 -63 -510 0 -106 7 -213 16
-245 2 -8 7 -33 9 -55 7 -57 52 -206 87 -290 58 -140 178 -309 286 -403 119
-104 289 -195 438 -233 80 -21 112 -24 295 -24 182 0 215 3 295 23 188 49 383
166 517 310 153 165 276 422 303 637 4 28 10 76 14 109 12 91 5 341 -13 456
-18 119 -18 119 -41 215 -9 39 -19 79 -21 90 -9 47 -80 280 -124 410 -99 290
-213 568 -403 980 -49 106 -288 585 -349 700 -24 44 -54 93 -68 109 -48 55
-129 72 -185 37z"/>
</g>
</svg>
