<svg version="1" xmlns="http://www.w3.org/2000/svg" width="658.667" height="658.667" viewBox="0 0 494.000000 494.000000"><path d="M239.5 43.9c-4.6 2.8-6.3 5.2-12.6 17.3-9 17.4-28.6 57.1-33.4 67.8-2.4 5.2-5.4 12-6.8 15-9.8 21.6-32.7 79.7-32.7 83 0 .6-.4 1.8-1 2.8-1.3 2.2-10.2 33.9-12.8 45.7-4.5 19.9-6.2 33.4-6.3 51 0 10.6.7 21.3 1.6 24.5.2.8.7 3.3.9 5.5.7 5.7 5.2 20.6 8.7 29 5.8 14 17.8 30.9 28.6 40.3 11.9 10.4 28.9 19.5 43.8 23.3 8 2.1 11.2 2.4 29.5 2.4 18.2 0 21.5-.3 29.5-2.3 18.8-4.9 38.3-16.6 51.7-31 15.3-16.5 27.6-42.2 30.3-63.7.4-2.8 1-7.6 1.4-10.9 1.2-9.1.5-34.1-1.3-45.6-1.8-11.9-1.8-11.9-4.1-21.5-.9-3.9-1.9-7.9-2.1-9-.9-4.7-8-28-12.4-41-9.9-29-21.3-56.8-40.3-98-4.9-10.6-28.8-58.5-34.9-70-2.4-4.4-5.4-9.3-6.8-10.9-4.8-5.5-12.9-7.2-18.5-3.7z"/></svg>